{"glyphs":{"0":{"ha":911,"x_min":0,"x_max":0,"o":"m 458 -14 b 846 482 674 -14 846 179 b 456 978 846 786 672 978 b 65 483 239 978 65 786 b 458 -14 65 181 242 -14 z m 456 110 b 197 483 304 110 197 238 b 456 856 197 728 304 856 b 714 483 607 856 714 726 b 456 110 714 238 608 110 z "},"1":{"ha":482,"x_min":0,"x_max":0,"o":"m 240 0 l 369 0 l 369 964 l 43 964 l 43 847 l 240 847 z "},"2":{"ha":751,"x_min":0,"x_max":0,"o":"m 46 0 l 693 0 l 693 117 l 249 117 l 503 379 b 671 700 632 514 671 581 b 378 978 671 865 554 978 b 54 788 236 978 129 913 l 146 711 b 374 856 204 808 275 856 b 543 699 474 856 543 796 b 401 454 543 624 508 565 l 46 79 z "},"3":{"ha":747,"x_min":0,"x_max":0,"o":"m 343 -14 b 685 297 546 -14 685 114 b 410 586 685 469 565 586 l 408 586 l 674 886 l 674 964 l 88 964 l 88 847 l 485 847 l 236 564 l 236 485 b 335 499 267 493 301 499 b 553 304 468 499 553 424 b 342 108 553 186 468 108 b 131 214 251 108 172 149 l 42 125 b 343 -14 113 35 217 -14 z "},"4":{"ha":831,"x_min":0,"x_max":0,"o":"m 46 251 l 517 251 l 517 0 l 646 0 l 646 251 l 785 251 l 785 368 l 646 368 l 646 638 l 517 638 l 517 368 l 207 368 l 544 964 l 397 964 l 46 332 z "},"5":{"ha":751,"x_min":0,"x_max":0,"o":"m 344 -14 b 694 304 547 -14 694 119 b 382 617 694 478 581 617 b 218 576 311 617 258 603 l 246 847 l 646 847 l 646 964 l 139 964 l 96 519 l 167 449 b 358 510 222 492 282 510 b 563 311 469 510 563 439 b 342 108 563 188 471 108 b 128 214 249 108 169 149 l 39 125 b 344 -14 110 35 214 -14 z "},"6":{"ha":783,"x_min":0,"x_max":0,"o":"m 392 -14 b 729 321 579 -14 729 136 b 422 635 729 504 590 635 b 326 618 383 635 351 629 l 579 964 l 428 964 l 144 571 b 56 317 83 485 56 404 b 392 -14 56 132 201 -14 z m 392 108 b 186 321 275 108 186 200 b 392 532 186 440 275 532 b 597 321 507 532 597 440 b 392 108 597 201 507 108 z "},"7":{"ha":729,"x_min":0,"x_max":0,"o":"m 194 0 l 332 0 l 685 883 l 685 964 l 43 964 l 43 847 l 539 847 z "},"8":{"ha":764,"x_min":0,"x_max":0,"o":"m 382 -14 b 706 267 575 -14 706 104 b 540 517 706 379 643 472 b 661 725 619 558 661 638 b 382 979 661 874 543 979 b 103 725 221 979 103 874 b 224 517 103 638 144 558 b 58 267 121 472 58 379 b 382 -14 60 104 189 -14 z m 382 563 b 225 717 290 563 225 625 b 382 868 225 806 290 868 b 540 717 474 868 540 806 b 382 563 540 625 474 563 z m 382 104 b 185 283 267 104 185 178 b 382 461 185 386 267 461 b 579 283 497 461 579 386 b 382 104 579 178 497 104 z "},"9":{"ha":783,"x_min":0,"x_max":0,"o":"m 204 0 l 356 0 l 639 393 b 728 647 699 479 728 560 b 392 978 728 832 582 978 b 54 643 204 978 54 828 b 361 329 54 460 193 329 b 458 346 400 329 432 335 z m 392 432 b 185 643 276 432 185 525 b 392 856 185 763 275 856 b 597 643 508 856 597 764 b 392 432 597 525 508 432 z "},"A":{"ha":967,"x_min":0,"x_max":0,"o":"m 43 0 l 182 0 l 268 218 l 696 218 l 783 0 l 925 0 l 532 964 l 438 964 z m 314 332 l 483 754 l 651 332 z "},"Á":{"ha":967,"x_min":0,"x_max":0,"o":"m 400 1063 l 622 1244 l 525 1343 l 343 1119 z m 43 0 l 182 0 l 268 218 l 696 218 l 783 0 l 925 0 l 532 964 l 438 964 z m 314 332 l 483 754 l 651 332 z "},"Â":{"ha":967,"x_min":0,"x_max":0,"o":"m 301 1061 l 483 1211 l 664 1061 l 721 1117 l 532 1332 l 435 1332 l 246 1117 z m 43 0 l 182 0 l 268 218 l 696 218 l 783 0 l 925 0 l 532 964 l 438 964 z m 314 332 l 483 754 l 651 332 z "},"Ä":{"ha":967,"x_min":0,"x_max":0,"o":"m 344 1075 b 424 1156 390 1075 424 1110 b 344 1235 424 1200 390 1235 b 265 1156 299 1235 265 1200 b 344 1075 265 1110 299 1075 z m 622 1075 b 701 1156 668 1075 701 1110 b 622 1235 701 1200 668 1235 b 543 1156 576 1235 543 1200 b 622 1075 543 1110 576 1075 z m 43 0 l 182 0 l 268 218 l 696 218 l 783 0 l 925 0 l 532 964 l 438 964 z m 314 332 l 483 754 l 651 332 z "},"À":{"ha":967,"x_min":0,"x_max":0,"o":"m 539 1053 l 596 1108 l 414 1332 l 317 1235 z m 43 0 l 182 0 l 268 218 l 696 218 l 783 0 l 925 0 l 532 964 l 438 964 z m 314 332 l 483 754 l 651 332 z "},"Å":{"ha":967,"x_min":0,"x_max":0,"o":"m 43 0 l 182 0 l 268 218 l 696 218 l 783 0 l 925 0 l 547 926 b 649 1079 608 950 649 1008 b 485 1244 649 1171 579 1244 b 317 1079 386 1244 317 1171 b 422 925 317 1007 358 949 z m 485 1006 b 411 1079 440 1006 411 1038 b 485 1153 411 1121 440 1153 b 556 1079 524 1153 556 1121 b 485 1006 556 1038 524 1006 z m 314 332 l 483 754 l 651 332 z "},"Ã":{"ha":967,"x_min":0,"x_max":0,"o":"m 585 1065 b 744 1158 651 1065 697 1103 l 676 1225 b 582 1174 651 1192 628 1174 b 385 1238 517 1174 476 1238 b 222 1146 315 1238 269 1201 l 290 1079 b 388 1129 315 1113 339 1129 b 585 1065 454 1129 494 1065 z m 43 0 l 182 0 l 268 218 l 696 218 l 783 0 l 925 0 l 532 964 l 438 964 z m 314 332 l 483 754 l 651 332 z "},"Æ":{"ha":1351,"x_min":0,"x_max":0,"o":"m 43 0 l 182 0 l 317 340 l 688 340 l 688 0 l 1289 0 l 1289 119 l 818 119 l 818 436 l 1243 436 l 1243 550 l 818 550 l 818 844 l 1281 844 l 1281 964 l 438 964 z m 519 844 l 688 844 l 688 454 l 363 454 z "},"B":{"ha":865,"x_min":0,"x_max":0,"o":"m 114 0 l 486 0 b 803 272 688 0 803 121 b 644 515 803 381 744 467 b 761 718 721 563 760 631 b 475 964 761 850 663 964 l 114 964 z m 472 850 b 629 707 568 850 629 800 b 478 564 629 614 571 564 l 244 564 l 244 850 z m 497 450 b 671 282 604 450 671 375 b 493 114 671 189 603 114 l 244 114 l 244 450 z "},"C":{"ha":956,"x_min":0,"x_max":0,"o":"m 551 -14 b 910 133 703 -14 822 42 l 819 222 b 550 111 757 154 671 111 b 200 482 347 111 200 265 b 550 853 200 697 346 853 b 813 743 661 853 750 811 l 903 833 b 550 978 814 922 701 978 b 65 482 271 978 65 758 b 551 -14 65 206 272 -14 z "},"Ç":{"ha":956,"x_min":0,"x_max":0,"o":"m 503 -290 b 681 -167 610 -290 681 -239 b 551 -49 681 -107 632 -61 l 563 -14 b 910 133 708 -11 824 44 l 819 222 b 550 111 757 154 671 111 b 200 482 347 111 200 265 b 550 853 200 697 346 853 b 813 743 661 853 750 811 l 903 833 b 550 978 814 922 701 978 b 65 482 271 978 65 758 b 469 -7 65 232 232 31 l 435 -117 l 496 -117 b 574 -164 549 -117 574 -137 b 494 -208 574 -190 547 -208 b 396 -172 450 -208 418 -193 l 340 -240 b 503 -290 388 -272 436 -290 z "},"D":{"ha":1028,"x_min":0,"x_max":0,"o":"m 114 0 l 474 0 b 961 482 753 0 961 208 b 471 964 961 758 751 964 l 114 964 z m 468 844 b 826 483 679 844 826 696 b 468 119 826 269 679 119 l 244 119 l 244 844 z "},"Ð":{"ha":1049,"x_min":0,"x_max":0,"o":"m 135 0 l 494 0 b 982 482 774 0 982 208 b 492 964 982 758 772 964 l 135 964 l 135 543 l 31 543 l 31 433 l 135 433 z m 547 433 l 547 543 l 265 543 l 265 844 l 489 844 b 847 483 700 844 847 696 b 489 119 847 269 700 119 l 265 119 l 265 433 z "},"E":{"ha":819,"x_min":0,"x_max":0,"o":"m 114 0 l 756 0 l 756 119 l 244 119 l 244 436 l 710 436 l 710 550 l 244 550 l 244 844 l 749 844 l 749 964 l 114 964 z "},"É":{"ha":819,"x_min":0,"x_max":0,"o":"m 356 1063 l 578 1244 l 479 1343 l 299 1119 z m 114 0 l 756 0 l 756 119 l 244 119 l 244 436 l 710 436 l 710 550 l 244 550 l 244 844 l 749 844 l 749 964 l 114 964 z "},"Ê":{"ha":819,"x_min":0,"x_max":0,"o":"m 257 1061 l 439 1211 l 619 1061 l 675 1117 l 486 1332 l 389 1332 l 200 1117 z m 114 0 l 756 0 l 756 119 l 244 119 l 244 436 l 710 436 l 710 550 l 244 550 l 244 844 l 749 844 l 749 964 l 114 964 z "},"Ë":{"ha":819,"x_min":0,"x_max":0,"o":"m 299 1075 b 378 1156 346 1075 378 1110 b 299 1235 378 1200 346 1235 b 221 1156 253 1235 221 1200 b 299 1075 221 1110 253 1075 z m 576 1075 b 656 1156 624 1075 656 1110 b 576 1235 656 1200 624 1235 b 499 1156 531 1235 499 1200 b 576 1075 499 1110 531 1075 z m 114 0 l 756 0 l 756 119 l 244 119 l 244 436 l 710 436 l 710 550 l 244 550 l 244 844 l 749 844 l 749 964 l 114 964 z "},"È":{"ha":819,"x_min":0,"x_max":0,"o":"m 493 1053 l 550 1108 l 369 1332 l 271 1235 z m 114 0 l 756 0 l 756 119 l 244 119 l 244 436 l 710 436 l 710 550 l 244 550 l 244 844 l 749 844 l 749 964 l 114 964 z "},"F":{"ha":786,"x_min":0,"x_max":0,"o":"m 114 0 l 244 0 l 244 424 l 706 424 l 706 543 l 244 543 l 244 844 l 729 844 l 729 964 l 114 964 z "},"G":{"ha":1074,"x_min":0,"x_max":0,"o":"m 550 -14 b 1013 494 821 -14 1013 160 l 1013 514 l 540 514 l 540 394 l 874 394 b 546 113 853 211 732 111 b 200 483 347 113 200 265 b 558 853 200 700 346 853 b 843 715 676 853 782 804 l 933 806 b 558 978 847 915 713 978 b 65 483 278 978 65 761 b 550 -14 65 206 279 -14 z "},"H":{"ha":981,"x_min":0,"x_max":0,"o":"m 114 0 l 244 0 l 244 439 l 736 439 l 736 0 l 867 0 l 867 964 l 736 964 l 736 558 l 244 558 l 244 964 l 114 964 z "},"I":{"ha":358,"x_min":0,"x_max":0,"o":"m 114 0 l 244 0 l 244 964 l 114 964 z "},"Í":{"ha":358,"x_min":0,"x_max":0,"o":"m 96 1063 l 318 1244 l 221 1343 l 40 1119 z m 114 0 l 244 0 l 244 964 l 114 964 z "},"Î":{"ha":358,"x_min":0,"x_max":0,"o":"m -1 1061 l 181 1211 l 360 1061 l 417 1117 l 228 1332 l 131 1332 l -58 1117 z m 114 0 l 244 0 l 244 964 l 114 964 z "},"Ï":{"ha":358,"x_min":0,"x_max":0,"o":"m 40 1075 b 119 1156 86 1075 119 1110 b 40 1235 119 1200 86 1235 b -37 1156 -6 1235 -37 1200 b 40 1075 -37 1110 -6 1075 z m 318 1075 b 397 1156 364 1075 397 1110 b 318 1235 397 1200 364 1235 b 240 1156 272 1235 240 1200 b 318 1075 240 1110 272 1075 z m 114 0 l 244 0 l 244 964 l 114 964 z "},"Ì":{"ha":358,"x_min":0,"x_max":0,"o":"m 235 1053 l 292 1108 l 111 1332 l 13 1235 z m 114 0 l 244 0 l 244 964 l 114 964 z "},"J":{"ha":688,"x_min":0,"x_max":0,"o":"m 292 -14 b 585 301 461 -14 585 107 l 585 964 l 454 964 l 454 294 b 288 111 454 174 385 111 b 133 192 222 111 169 140 l 42 107 b 292 -14 96 32 182 -14 z "},"K":{"ha":925,"x_min":0,"x_max":0,"o":"m 114 0 l 244 0 l 244 482 l 710 0 l 883 0 l 392 504 l 869 964 l 700 964 l 244 522 l 244 964 l 114 964 z "},"L":{"ha":767,"x_min":0,"x_max":0,"o":"m 114 0 l 719 0 l 719 119 l 244 119 l 244 964 l 114 964 z "},"M":{"ha":1165,"x_min":0,"x_max":0,"o":"m 114 0 l 244 0 l 244 678 l 538 197 l 629 197 l 921 678 l 921 0 l 1051 0 l 1051 964 l 960 964 l 583 343 l 206 964 l 114 964 z "},"N":{"ha":986,"x_min":0,"x_max":0,"o":"m 114 0 l 244 0 l 244 715 l 781 0 l 872 0 l 872 964 l 742 964 l 742 249 l 206 964 l 114 964 z "},"Ñ":{"ha":986,"x_min":0,"x_max":0,"o":"m 594 1065 b 754 1158 663 1065 707 1103 l 686 1225 b 593 1174 663 1192 639 1174 b 396 1238 528 1174 486 1238 b 233 1146 325 1238 281 1201 l 301 1079 b 397 1129 325 1113 349 1129 b 594 1065 465 1129 506 1065 z m 114 0 l 244 0 l 244 715 l 781 0 l 872 0 l 872 964 l 742 964 l 742 249 l 206 964 l 114 964 z "},"O":{"ha":1103,"x_min":0,"x_max":0,"o":"m 553 -14 b 1038 482 825 -14 1038 206 b 550 978 1038 760 824 978 b 65 483 278 978 65 760 b 553 -14 65 207 281 -14 z m 550 111 b 200 483 346 111 200 267 b 550 853 200 699 346 853 b 903 483 756 853 903 697 b 550 111 903 267 756 111 z "},"Ó":{"ha":1103,"x_min":0,"x_max":0,"o":"m 468 1063 l 690 1244 l 593 1343 l 411 1119 z m 553 -14 b 1038 482 825 -14 1038 206 b 550 978 1038 760 824 978 b 65 483 278 978 65 760 b 553 -14 65 207 281 -14 z m 550 111 b 200 483 346 111 200 267 b 550 853 200 699 346 853 b 903 483 756 853 903 697 b 550 111 903 267 756 111 z "},"Ô":{"ha":1103,"x_min":0,"x_max":0,"o":"m 369 1061 l 551 1211 l 732 1061 l 789 1117 l 600 1332 l 503 1332 l 314 1117 z m 553 -14 b 1038 482 825 -14 1038 206 b 550 978 1038 760 824 978 b 65 483 278 978 65 760 b 553 -14 65 207 281 -14 z m 550 111 b 200 483 346 111 200 267 b 550 853 200 699 346 853 b 903 483 756 853 903 697 b 550 111 903 267 756 111 z "},"Ö":{"ha":1103,"x_min":0,"x_max":0,"o":"m 413 1075 b 492 1156 458 1075 492 1110 b 413 1235 492 1200 458 1235 b 333 1156 367 1235 333 1200 b 413 1075 333 1110 367 1075 z m 690 1075 b 769 1156 736 1075 769 1110 b 690 1235 769 1200 736 1235 b 611 1156 644 1235 611 1200 b 690 1075 611 1110 644 1075 z m 553 -14 b 1038 482 825 -14 1038 206 b 550 978 1038 760 824 978 b 65 483 278 978 65 760 b 553 -14 65 207 281 -14 z m 550 111 b 200 483 346 111 200 267 b 550 853 200 699 346 853 b 903 483 756 853 903 697 b 550 111 903 267 756 111 z "},"Ò":{"ha":1103,"x_min":0,"x_max":0,"o":"m 607 1053 l 664 1108 l 482 1332 l 385 1235 z m 553 -14 b 1038 482 825 -14 1038 206 b 550 978 1038 760 824 978 b 65 483 278 978 65 760 b 553 -14 65 207 281 -14 z m 550 111 b 200 483 346 111 200 267 b 550 853 200 699 346 853 b 903 483 756 853 903 697 b 550 111 903 267 756 111 z "},"Ø":{"ha":1103,"x_min":0,"x_max":0,"o":"m 553 -14 b 1036 482 824 -14 1036 206 b 939 783 1036 596 1000 700 l 1033 878 l 947 964 l 854 871 b 550 978 771 939 665 978 b 64 483 276 978 64 760 b 164 181 64 369 101 264 l 69 86 l 156 0 l 249 93 b 553 -14 331 26 436 -14 z m 199 483 b 550 853 199 699 344 853 b 765 782 633 853 707 826 l 256 272 b 199 483 219 331 199 403 z m 550 111 b 336 181 467 111 394 136 l 846 692 b 901 483 882 633 901 563 b 550 111 901 267 756 111 z "},"Õ":{"ha":1103,"x_min":0,"x_max":0,"o":"m 653 1065 b 813 1158 719 1065 765 1103 l 744 1225 b 650 1174 719 1192 696 1174 b 453 1238 585 1174 544 1238 b 290 1146 383 1238 338 1201 l 358 1079 b 456 1129 383 1113 407 1129 b 653 1065 522 1129 563 1065 z m 553 -14 b 1038 482 825 -14 1038 206 b 550 978 1038 760 824 978 b 65 483 278 978 65 760 b 553 -14 65 207 281 -14 z m 550 111 b 200 483 346 111 200 267 b 550 853 200 699 346 853 b 903 483 756 853 903 697 b 550 111 903 267 756 111 z "},"Œ":{"ha":1607,"x_min":0,"x_max":0,"o":"m 553 -14 b 903 157 703 -14 824 51 l 903 0 l 1544 0 l 1544 119 l 1033 119 l 1033 436 l 1499 436 l 1499 550 l 1033 550 l 1033 844 l 1536 844 l 1536 964 l 903 964 l 903 807 b 550 978 824 913 701 978 b 65 483 278 978 65 760 b 553 -14 65 207 281 -14 z m 550 111 b 200 483 346 111 200 267 b 550 853 200 699 346 853 b 903 483 758 853 903 697 b 550 111 903 267 760 111 z "},"P":{"ha":842,"x_min":0,"x_max":0,"o":"m 114 0 l 244 0 l 244 375 l 472 375 b 783 669 649 375 783 492 b 472 964 783 849 649 964 l 114 964 z m 464 850 b 651 669 574 850 651 781 b 464 489 651 560 574 489 l 244 489 l 244 850 z "},"Þ":{"ha":842,"x_min":0,"x_max":0,"o":"m 114 0 l 244 0 l 244 199 l 472 199 b 783 493 649 199 783 315 b 472 788 783 672 649 788 l 244 788 l 244 964 l 114 964 z m 464 674 b 651 493 574 674 651 604 b 464 314 651 383 574 314 l 244 314 l 244 674 z "},"Q":{"ha":1135,"x_min":0,"x_max":0,"o":"m 554 -14 b 856 92 669 -14 774 25 l 1015 -68 l 1099 17 l 938 178 b 1038 482 1001 261 1038 367 b 551 978 1038 760 824 978 b 65 483 278 978 65 760 b 554 -14 65 207 281 -14 z m 551 111 b 200 483 347 111 200 267 b 551 853 200 699 346 853 b 903 483 756 853 903 697 b 846 269 903 401 882 329 l 649 468 l 564 383 l 765 182 b 551 111 708 138 635 111 z "},"R":{"ha":875,"x_min":0,"x_max":0,"o":"m 114 0 l 244 0 l 244 419 l 329 419 l 669 0 l 835 0 l 489 421 b 769 692 660 428 769 533 b 468 964 769 849 651 964 l 114 964 z m 464 850 b 639 689 575 850 639 781 b 463 529 639 590 575 529 l 244 529 l 244 850 z "},"S":{"ha":771,"x_min":0,"x_max":0,"o":"m 382 -14 b 708 258 582 -14 708 88 b 238 726 708 615 238 500 b 407 856 238 808 303 856 b 613 756 493 856 556 822 l 701 844 b 410 978 638 924 536 978 b 107 718 238 978 107 881 b 576 249 107 374 576 497 b 386 108 576 161 500 108 b 133 238 269 108 194 153 l 44 149 b 382 -14 126 43 229 -14 z "},"T":{"ha":868,"x_min":0,"x_max":0,"o":"m 369 0 l 500 0 l 500 844 l 826 844 l 826 964 l 42 964 l 42 844 l 369 844 z "},"U":{"ha":949,"x_min":0,"x_max":0,"o":"m 475 -14 b 847 356 689 -14 847 143 l 847 964 l 715 964 l 715 358 b 475 111 715 208 614 111 b 233 360 338 111 233 208 l 233 964 l 103 964 l 103 357 b 475 -14 103 144 263 -14 z "},"Ú":{"ha":949,"x_min":0,"x_max":0,"o":"m 392 1063 l 614 1244 l 515 1343 l 335 1119 z m 475 -14 b 847 356 689 -14 847 143 l 847 964 l 715 964 l 715 358 b 475 111 715 208 614 111 b 233 360 338 111 233 208 l 233 964 l 103 964 l 103 357 b 475 -14 103 144 263 -14 z "},"Û":{"ha":949,"x_min":0,"x_max":0,"o":"m 293 1061 l 475 1211 l 656 1061 l 711 1117 l 522 1332 l 425 1332 l 236 1117 z m 475 -14 b 847 356 689 -14 847 143 l 847 964 l 715 964 l 715 358 b 475 111 715 208 614 111 b 233 360 338 111 233 208 l 233 964 l 103 964 l 103 357 b 475 -14 103 144 263 -14 z "},"Ü":{"ha":949,"x_min":0,"x_max":0,"o":"m 335 1075 b 414 1156 382 1075 414 1110 b 335 1235 414 1200 382 1235 b 257 1156 289 1235 257 1200 b 335 1075 257 1110 289 1075 z m 613 1075 b 692 1156 660 1075 692 1110 b 613 1235 692 1200 660 1235 b 535 1156 567 1235 535 1200 b 613 1075 535 1110 567 1075 z m 475 -14 b 847 356 689 -14 847 143 l 847 964 l 715 964 l 715 358 b 475 111 715 208 614 111 b 233 360 338 111 233 208 l 233 964 l 103 964 l 103 357 b 475 -14 103 144 263 -14 z "},"Ù":{"ha":949,"x_min":0,"x_max":0,"o":"m 529 1053 l 586 1108 l 406 1332 l 307 1235 z m 475 -14 b 847 356 689 -14 847 143 l 847 964 l 715 964 l 715 358 b 475 111 715 208 614 111 b 233 360 338 111 233 208 l 233 964 l 103 964 l 103 357 b 475 -14 103 144 263 -14 z "},"V":{"ha":956,"x_min":0,"x_max":0,"o":"m 429 0 l 524 0 l 913 964 l 772 964 l 478 214 l 185 964 l 43 964 z "},"W":{"ha":1363,"x_min":0,"x_max":0,"o":"m 360 0 l 453 0 l 681 728 l 910 0 l 1003 0 l 1317 964 l 1188 964 l 956 236 l 728 964 l 633 964 l 406 236 l 175 964 l 44 964 z "},"X":{"ha":960,"x_min":0,"x_max":0,"o":"m 42 0 l 189 0 l 485 410 l 765 0 l 918 0 l 571 500 l 903 964 l 756 964 l 488 585 l 214 964 l 58 964 l 401 493 z "},"Y":{"ha":924,"x_min":0,"x_max":0,"o":"m 397 0 l 528 0 l 528 429 l 885 964 l 736 964 l 464 547 l 192 964 l 40 964 l 397 424 z "},"Ý":{"ha":924,"x_min":0,"x_max":0,"o":"m 379 1063 l 601 1244 l 503 1343 l 322 1119 z m 397 0 l 528 0 l 528 429 l 885 964 l 736 964 l 464 547 l 192 964 l 40 964 l 397 424 z "},"Z":{"ha":810,"x_min":0,"x_max":0,"o":"m 54 0 l 742 0 l 742 119 l 228 119 l 751 875 l 751 964 l 83 964 l 83 844 l 578 844 l 54 90 z "},"a":{"ha":808,"x_min":0,"x_max":0,"o":"m 372 -14 b 592 89 467 -14 544 25 l 592 0 l 718 0 l 718 660 l 592 660 l 592 569 b 372 674 544 635 465 674 b 50 329 190 674 50 522 b 372 -14 50 136 190 -14 z m 393 104 b 179 331 268 104 179 199 b 392 556 179 463 267 556 b 600 329 517 556 600 464 b 393 104 600 196 517 104 z "},"á":{"ha":808,"x_min":0,"x_max":0,"o":"m 307 758 l 529 940 l 432 1039 l 250 815 z m 372 -14 b 592 89 467 -14 544 25 l 592 0 l 718 0 l 718 660 l 592 660 l 592 569 b 372 674 544 635 465 674 b 50 329 190 674 50 522 b 372 -14 50 136 190 -14 z m 393 104 b 179 331 268 104 179 199 b 392 556 179 463 267 556 b 600 329 517 556 600 464 b 393 104 600 196 517 104 z "},"â":{"ha":808,"x_min":0,"x_max":0,"o":"m 208 757 l 390 907 l 571 757 l 628 813 l 439 1028 l 342 1028 l 153 813 z m 372 -14 b 592 89 467 -14 544 25 l 592 0 l 718 0 l 718 660 l 592 660 l 592 569 b 372 674 544 635 465 674 b 50 329 190 674 50 522 b 372 -14 50 136 190 -14 z m 393 104 b 179 331 268 104 179 199 b 392 556 179 463 267 556 b 600 329 517 556 600 464 b 393 104 600 196 517 104 z "},"ä":{"ha":808,"x_min":0,"x_max":0,"o":"m 251 771 b 331 851 297 771 331 806 b 251 931 331 896 297 931 b 172 851 206 931 172 896 b 251 771 172 806 206 771 z m 529 771 b 608 851 575 771 608 806 b 529 931 608 896 575 931 b 450 851 483 931 450 896 b 529 771 450 806 483 771 z m 372 -14 b 592 89 467 -14 544 25 l 592 0 l 718 0 l 718 660 l 592 660 l 592 569 b 372 674 544 635 465 674 b 50 329 190 674 50 522 b 372 -14 50 136 190 -14 z m 393 104 b 179 331 268 104 179 199 b 392 556 179 463 267 556 b 600 329 517 556 600 464 b 393 104 600 196 517 104 z "},"à":{"ha":808,"x_min":0,"x_max":0,"o":"m 446 749 l 503 804 l 321 1028 l 224 931 z m 372 -14 b 592 89 467 -14 544 25 l 592 0 l 718 0 l 718 660 l 592 660 l 592 569 b 372 674 544 635 465 674 b 50 329 190 674 50 522 b 372 -14 50 136 190 -14 z m 393 104 b 179 331 268 104 179 199 b 392 556 179 463 267 556 b 600 329 517 556 600 464 b 393 104 600 196 517 104 z "},"å":{"ha":808,"x_min":0,"x_max":0,"o":"m 392 739 b 556 904 486 739 556 811 b 392 1068 556 996 486 1068 b 224 904 293 1068 224 996 b 392 739 224 811 293 739 z m 392 829 b 318 904 347 829 318 861 b 392 978 318 946 347 978 b 463 904 431 978 463 946 b 392 829 463 861 431 829 z m 372 -14 b 592 89 467 -14 544 25 l 592 0 l 718 0 l 718 660 l 592 660 l 592 569 b 372 674 544 635 465 674 b 50 329 190 674 50 522 b 372 -14 50 136 190 -14 z m 393 104 b 179 331 268 104 179 199 b 392 556 179 463 267 556 b 600 329 517 556 600 464 b 393 104 600 196 517 104 z "},"ã":{"ha":808,"x_min":0,"x_max":0,"o":"m 492 761 b 651 854 558 761 604 799 l 583 921 b 489 869 558 888 535 869 b 292 933 424 869 383 933 b 129 842 222 933 176 897 l 197 775 b 294 825 222 808 246 825 b 492 761 361 825 401 761 z m 372 -14 b 592 89 467 -14 544 25 l 592 0 l 718 0 l 718 660 l 592 660 l 592 569 b 372 674 544 635 465 674 b 50 329 190 674 50 522 b 372 -14 50 136 190 -14 z m 393 104 b 179 331 268 104 179 199 b 392 556 179 463 267 556 b 600 329 517 556 600 464 b 393 104 600 196 517 104 z "},"æ":{"ha":1294,"x_min":0,"x_max":0,"o":"m 372 -14 b 592 89 467 -14 544 25 l 592 0 l 717 0 l 717 94 b 957 -14 771 26 851 -14 b 1210 100 1051 -14 1146 26 l 1129 182 b 947 104 1086 129 1021 104 b 726 283 829 104 746 174 l 1243 283 b 1250 350 1249 310 1250 331 b 944 674 1250 538 1119 674 b 717 568 846 674 768 633 l 717 660 l 592 660 l 592 569 b 372 674 544 635 465 674 b 50 329 190 674 50 522 b 372 -14 50 136 190 -14 z m 936 558 b 1128 388 1044 558 1114 494 l 726 388 b 936 558 746 492 825 558 z m 393 104 b 179 331 268 104 179 199 b 392 556 179 463 267 556 b 600 329 517 556 600 464 b 393 104 600 196 517 104 z "},"b":{"ha":808,"x_min":0,"x_max":0,"o":"m 92 0 l 217 0 l 217 90 b 439 -14 265 25 344 -14 b 758 329 619 -14 758 136 b 439 674 758 524 619 674 b 217 568 346 674 265 633 l 217 992 l 92 992 z m 418 104 b 210 329 294 104 210 197 b 419 556 210 463 294 556 b 631 331 543 556 631 463 b 418 104 631 197 543 104 z "},"c":{"ha":679,"x_min":0,"x_max":0,"o":"m 393 -14 b 647 97 494 -14 586 26 l 565 181 b 393 107 524 132 464 107 b 178 331 268 107 178 200 b 393 553 178 461 268 553 b 564 479 463 553 522 528 l 647 563 b 393 674 585 633 494 674 b 49 331 199 674 49 524 b 393 -14 49 136 199 -14 z "},"ç":{"ha":679,"x_min":0,"x_max":0,"o":"m 350 -290 b 528 -167 457 -290 528 -239 b 399 -49 528 -107 479 -61 l 410 -14 b 647 97 504 -10 589 31 l 565 181 b 393 107 524 132 464 107 b 178 331 268 107 178 200 b 393 553 178 461 268 553 b 564 479 463 553 522 528 l 647 563 b 393 674 585 633 494 674 b 49 331 199 674 49 524 b 317 -6 49 163 161 28 l 282 -117 l 343 -117 b 421 -164 396 -117 421 -137 b 342 -208 421 -190 394 -208 b 243 -172 297 -208 265 -193 l 188 -240 b 350 -290 235 -272 283 -290 z "},"d":{"ha":808,"x_min":0,"x_max":0,"o":"m 371 -14 b 592 90 464 -14 544 25 l 592 0 l 718 0 l 718 992 l 592 992 l 592 568 b 369 674 543 633 464 674 b 50 329 189 674 50 524 b 371 -14 50 136 189 -14 z m 392 104 b 179 331 267 104 179 197 b 390 556 179 463 267 556 b 600 329 515 556 600 463 b 392 104 600 197 515 104 z "},"ð":{"ha":783,"x_min":0,"x_max":0,"o":"m 393 -14 b 729 317 582 -14 729 132 b 640 571 729 404 700 485 l 471 804 l 619 860 l 585 950 l 413 886 l 357 964 l 204 964 l 293 843 l 122 779 l 158 689 l 353 761 l 457 618 b 363 635 432 629 400 635 b 56 321 193 635 56 504 b 393 -14 56 136 206 -14 z m 393 108 b 186 321 276 108 186 201 b 393 532 186 440 278 532 b 597 321 510 532 597 440 b 393 108 597 200 510 108 z "},"e":{"ha":744,"x_min":0,"x_max":0,"o":"m 397 -14 b 660 100 501 -14 596 26 l 579 182 b 397 104 536 129 471 104 b 176 283 279 104 196 174 l 693 283 b 700 350 699 310 700 331 b 389 674 700 538 569 674 b 49 331 197 674 49 524 b 397 -14 49 133 199 -14 z m 386 558 b 578 388 494 558 564 494 l 176 388 b 386 558 196 492 275 558 z "},"é":{"ha":744,"x_min":0,"x_max":0,"o":"m 304 758 l 526 940 l 429 1039 l 247 815 z m 397 -14 b 660 100 501 -14 596 26 l 579 182 b 397 104 536 129 471 104 b 176 283 279 104 196 174 l 693 283 b 700 350 699 310 700 331 b 389 674 700 538 569 674 b 49 331 197 674 49 524 b 397 -14 49 133 199 -14 z m 386 558 b 578 388 494 558 564 494 l 176 388 b 386 558 196 492 275 558 z "},"ê":{"ha":744,"x_min":0,"x_max":0,"o":"m 206 757 l 388 907 l 568 757 l 625 813 l 436 1028 l 339 1028 l 150 813 z m 397 -14 b 660 100 501 -14 596 26 l 579 182 b 397 104 536 129 471 104 b 176 283 279 104 196 174 l 693 283 b 700 350 699 310 700 331 b 389 674 700 538 569 674 b 49 331 197 674 49 524 b 397 -14 49 133 199 -14 z m 386 558 b 578 388 494 558 564 494 l 176 388 b 386 558 196 492 275 558 z "},"ë":{"ha":744,"x_min":0,"x_max":0,"o":"m 249 771 b 328 851 294 771 328 806 b 249 931 328 896 294 931 b 169 851 203 931 169 896 b 249 771 169 806 203 771 z m 526 771 b 606 851 572 771 606 806 b 526 931 606 896 572 931 b 447 851 481 931 447 896 b 526 771 447 806 481 771 z m 397 -14 b 660 100 501 -14 596 26 l 579 182 b 397 104 536 129 471 104 b 176 283 279 104 196 174 l 693 283 b 700 350 699 310 700 331 b 389 674 700 538 569 674 b 49 331 197 674 49 524 b 397 -14 49 133 199 -14 z m 386 558 b 578 388 494 558 564 494 l 176 388 b 386 558 196 492 275 558 z "},"è":{"ha":744,"x_min":0,"x_max":0,"o":"m 443 749 l 500 804 l 318 1028 l 221 931 z m 397 -14 b 660 100 501 -14 596 26 l 579 182 b 397 104 536 129 471 104 b 176 283 279 104 196 174 l 693 283 b 700 350 699 310 700 331 b 389 674 700 538 569 674 b 49 331 197 674 49 524 b 397 -14 49 133 199 -14 z m 386 558 b 578 388 494 558 564 494 l 176 388 b 386 558 196 492 275 558 z "},"f":{"ha":554,"x_min":0,"x_max":0,"o":"m 186 0 l 311 0 l 311 546 l 521 546 l 521 660 l 311 660 l 311 758 b 436 889 311 840 357 889 b 531 849 478 889 506 874 l 613 929 b 438 1006 565 978 513 1006 b 186 758 289 1006 186 904 l 186 660 l 24 660 l 24 546 l 186 546 z "},"g":{"ha":804,"x_min":0,"x_max":0,"o":"m 365 11 b 588 114 461 11 539 49 l 588 26 b 368 -171 588 -96 503 -171 b 140 -65 267 -171 193 -133 l 60 -147 b 365 -290 124 -239 229 -290 b 713 26 572 -290 713 -164 l 713 660 l 588 660 l 588 571 b 364 674 539 636 461 674 b 49 343 185 674 49 531 b 365 11 49 153 185 11 z m 390 129 b 178 343 265 129 178 217 b 389 556 178 468 264 556 b 594 342 513 556 594 469 b 390 129 594 214 513 129 z "},"h":{"ha":761,"x_min":0,"x_max":0,"o":"m 92 0 l 217 0 l 217 385 b 389 557 217 485 289 557 b 558 385 489 557 558 486 l 558 0 l 683 0 l 683 410 b 425 674 683 564 575 674 b 217 574 338 674 264 636 l 217 992 l 92 992 z "},"i":{"ha":311,"x_min":0,"x_max":0,"o":"m 156 792 b 235 872 201 792 235 826 b 156 951 235 917 201 951 b 76 872 110 951 76 917 b 156 792 76 826 110 792 z m 93 0 l 218 0 l 218 660 l 93 660 z "},"ı":{"ha":308,"x_min":0,"x_max":0,"o":"m 92 0 l 217 0 l 217 660 l 92 660 z "},"í":{"ha":308,"x_min":0,"x_max":0,"o":"m 71 758 l 293 940 l 196 1039 l 14 815 z m 92 0 l 217 0 l 217 660 l 92 660 z "},"î":{"ha":308,"x_min":0,"x_max":0,"o":"m -28 757 l 154 907 l 335 757 l 392 813 l 203 1028 l 106 1028 l -83 813 z m 92 0 l 217 0 l 217 660 l 92 660 z "},"ï":{"ha":308,"x_min":0,"x_max":0,"o":"m 15 771 b 94 851 61 771 94 806 b 15 931 94 896 61 931 b -64 851 -31 931 -64 896 b 15 771 -64 806 -31 771 z m 293 771 b 372 851 339 771 372 806 b 293 931 372 896 339 931 b 214 851 247 931 214 896 b 293 771 214 806 247 771 z m 92 0 l 217 0 l 217 660 l 92 660 z "},"ì":{"ha":308,"x_min":0,"x_max":0,"o":"m 210 749 l 267 804 l 85 1028 l -12 931 z m 92 0 l 217 0 l 217 660 l 92 660 z "},"j":{"ha":319,"x_min":0,"x_max":0,"o":"m 167 792 b 246 872 213 792 246 826 b 167 951 246 917 213 951 b 89 872 121 951 89 917 b 167 792 89 826 121 792 z m 8 -290 b 228 -69 125 -290 228 -214 l 228 660 l 103 660 l 103 -71 b 0 -174 103 -140 56 -174 b -97 -128 -42 -174 -71 -158 l -178 -210 b 8 -290 -131 -262 -78 -290 z "},"k":{"ha":692,"x_min":0,"x_max":0,"o":"m 92 0 l 217 0 l 217 326 l 514 0 l 675 0 l 358 343 l 663 660 l 511 660 l 217 349 l 217 992 l 92 992 z "},"l":{"ha":308,"x_min":0,"x_max":0,"o":"m 92 0 l 217 0 l 217 992 l 92 992 z "},"m":{"ha":1188,"x_min":0,"x_max":0,"o":"m 92 0 l 217 0 l 217 400 b 379 557 217 497 289 557 b 538 399 471 557 538 497 l 538 0 l 663 0 l 663 400 b 826 557 663 497 735 557 b 983 399 917 557 983 497 l 983 0 l 1110 0 l 1110 424 b 856 674 1110 578 997 674 b 632 554 761 674 678 629 b 415 674 589 629 510 674 b 217 583 333 674 263 640 l 217 660 l 92 660 z "},"n":{"ha":761,"x_min":0,"x_max":0,"o":"m 92 0 l 217 0 l 217 385 b 389 557 217 485 289 557 b 558 385 489 557 558 486 l 558 0 l 683 0 l 683 410 b 425 674 683 547 576 674 b 217 574 338 674 264 636 l 217 660 l 92 660 z "},"ñ":{"ha":761,"x_min":0,"x_max":0,"o":"m 482 761 b 642 854 549 761 594 799 l 574 921 b 479 869 550 888 526 869 b 282 933 415 869 374 933 b 121 842 213 933 168 897 l 189 775 b 285 825 213 808 236 825 b 482 761 353 825 392 761 z m 92 0 l 217 0 l 217 385 b 389 557 217 485 289 557 b 558 385 489 557 558 486 l 558 0 l 683 0 l 683 410 b 425 674 683 547 576 674 b 217 574 338 674 264 636 l 217 660 l 92 660 z "},"o":{"ha":786,"x_min":0,"x_max":0,"o":"m 393 -14 b 738 332 586 -14 738 138 b 393 674 738 524 585 674 b 49 332 199 674 49 524 b 393 -14 49 139 200 -14 z m 393 107 b 178 332 268 107 178 201 b 393 553 178 460 268 553 b 608 332 517 553 608 461 b 393 107 608 201 518 107 z "},"ó":{"ha":786,"x_min":0,"x_max":0,"o":"m 310 758 l 532 940 l 435 1039 l 254 815 z m 393 -14 b 738 332 586 -14 738 138 b 393 674 738 524 585 674 b 49 332 199 674 49 524 b 393 -14 49 139 200 -14 z m 393 107 b 178 332 268 107 178 201 b 393 553 178 460 268 553 b 608 332 517 553 608 461 b 393 107 608 201 518 107 z "},"ô":{"ha":786,"x_min":0,"x_max":0,"o":"m 213 757 l 394 907 l 574 757 l 631 813 l 442 1028 l 344 1028 l 156 813 z m 393 -14 b 738 332 586 -14 738 138 b 393 674 738 524 585 674 b 49 332 199 674 49 524 b 393 -14 49 139 200 -14 z m 393 107 b 178 332 268 107 178 201 b 393 553 178 460 268 553 b 608 332 517 553 608 461 b 393 107 608 201 518 107 z "},"ö":{"ha":786,"x_min":0,"x_max":0,"o":"m 254 771 b 333 851 300 771 333 806 b 254 931 333 896 300 931 b 176 851 208 931 176 896 b 254 771 176 806 208 771 z m 532 771 b 611 851 578 771 611 806 b 532 931 611 896 578 931 b 454 851 486 931 454 896 b 532 771 454 806 486 771 z m 393 -14 b 738 332 586 -14 738 138 b 393 674 738 524 585 674 b 49 332 199 674 49 524 b 393 -14 49 139 200 -14 z m 393 107 b 178 332 268 107 178 201 b 393 553 178 460 268 553 b 608 332 517 553 608 461 b 393 107 608 201 518 107 z "},"ò":{"ha":786,"x_min":0,"x_max":0,"o":"m 449 749 l 506 804 l 325 1028 l 226 931 z m 393 -14 b 738 332 586 -14 738 138 b 393 674 738 524 585 674 b 49 332 199 674 49 524 b 393 -14 49 139 200 -14 z m 393 107 b 178 332 268 107 178 201 b 393 553 178 460 268 553 b 608 332 517 553 608 461 b 393 107 608 201 518 107 z "},"ø":{"ha":786,"x_min":0,"x_max":0,"o":"m 111 -35 l 193 49 b 392 -14 250 8 318 -14 b 738 332 586 -14 738 138 b 675 529 738 406 714 474 l 758 613 l 676 694 l 593 611 b 393 674 536 651 468 674 b 49 332 199 674 49 524 b 111 131 49 256 72 186 l 29 47 z m 178 332 b 393 553 178 460 268 553 b 506 524 435 553 472 543 l 203 221 b 178 332 186 253 178 290 z m 393 107 b 282 136 351 107 313 117 l 583 439 b 608 332 600 407 608 371 b 393 107 608 201 518 107 z "},"õ":{"ha":786,"x_min":0,"x_max":0,"o":"m 494 761 b 654 854 561 761 607 799 l 586 921 b 492 869 563 888 539 869 b 294 933 428 869 386 933 b 133 842 225 933 181 897 l 201 775 b 297 825 225 808 249 825 b 494 761 365 825 404 761 z m 393 -14 b 738 332 586 -14 738 138 b 393 674 738 524 585 674 b 49 332 199 674 49 524 b 393 -14 49 139 200 -14 z m 393 107 b 178 332 268 107 178 201 b 393 553 178 460 268 553 b 608 332 517 553 608 461 b 393 107 608 201 518 107 z "},"œ":{"ha":1310,"x_min":0,"x_max":0,"o":"m 393 -14 b 675 131 511 -14 613 42 b 961 -14 736 42 840 -14 b 1224 100 1065 -14 1161 26 l 1143 182 b 963 104 1100 129 1035 104 b 742 283 844 104 760 174 l 1258 283 b 1265 350 1263 310 1265 331 b 953 674 1265 538 1135 674 b 675 531 836 674 735 618 b 392 674 613 618 510 674 b 49 332 199 674 49 524 b 393 -14 49 139 200 -14 z m 951 558 b 1143 388 1060 558 1128 494 l 742 388 b 951 558 761 492 839 558 z m 393 107 b 178 332 268 107 178 201 b 393 553 178 460 268 553 b 608 332 517 553 608 461 b 393 107 608 201 518 107 z "},"p":{"ha":808,"x_min":0,"x_max":0,"o":"m 92 -276 l 217 -276 l 217 90 b 439 -14 265 25 344 -14 b 758 329 619 -14 758 136 b 439 674 758 524 619 674 b 217 568 346 674 265 633 l 217 660 l 92 660 z m 418 104 b 210 329 294 104 210 197 b 419 556 210 463 294 556 b 631 331 543 556 631 463 b 418 104 631 197 543 104 z "},"þ":{"ha":808,"x_min":0,"x_max":0,"o":"m 92 -276 l 217 -276 l 217 90 b 439 -14 265 25 344 -14 b 758 329 619 -14 758 136 b 439 674 758 524 619 674 b 217 568 346 674 265 633 l 217 992 l 92 992 z m 418 104 b 210 329 294 104 210 197 b 419 556 210 463 294 556 b 631 331 543 556 631 463 b 418 104 631 197 543 104 z "},"q":{"ha":810,"x_min":0,"x_max":0,"o":"m 374 -14 b 593 89 467 -14 544 25 l 593 -276 l 718 -276 l 718 660 l 593 660 l 593 569 b 372 674 544 635 465 674 b 50 329 190 674 50 522 b 374 -14 50 136 190 -14 z m 393 104 b 179 331 268 104 179 199 b 393 556 179 463 268 556 b 600 329 517 556 600 464 b 393 104 600 196 517 104 z "},"r":{"ha":582,"x_min":0,"x_max":0,"o":"m 92 0 l 217 0 l 217 376 b 375 556 217 496 282 556 b 479 514 418 556 450 543 l 561 599 b 396 674 515 651 463 674 b 217 582 315 674 254 640 l 217 660 l 92 660 z "},"s":{"ha":593,"x_min":0,"x_max":0,"o":"m 301 -14 b 544 188 450 -14 544 64 b 192 489 544 433 192 358 b 303 560 192 532 231 560 b 464 485 372 560 426 533 l 544 565 b 307 674 492 636 410 674 b 71 479 161 674 71 599 b 425 176 71 239 425 321 b 303 100 425 128 381 100 b 114 188 225 100 161 128 l 33 107 b 301 -14 94 31 190 -14 z "},"ß":{"ha":796,"x_min":0,"x_max":0,"o":"m 449 -14 b 750 275 626 -14 750 108 b 564 542 750 408 678 504 b 667 740 628 583 667 654 b 385 1006 667 886 557 1006 b 92 728 211 1006 92 883 l 92 0 l 217 0 l 217 728 b 385 888 217 824 286 888 b 543 732 482 888 543 819 b 396 568 543 636 485 568 l 347 568 l 347 458 l 431 458 b 613 278 535 458 613 379 b 453 104 613 174 544 104 b 336 147 397 104 361 122 l 261 53 b 449 -14 307 8 361 -14 z "},"t":{"ha":511,"x_min":0,"x_max":0,"o":"m 193 0 l 318 0 l 318 546 l 481 546 l 481 660 l 318 660 l 318 936 l 193 936 l 193 660 l 31 660 l 31 546 l 193 546 z "},"u":{"ha":717,"x_min":0,"x_max":0,"o":"m 358 -14 b 640 276 525 -14 640 104 l 640 660 l 515 660 l 515 282 b 358 107 515 172 457 107 b 200 282 260 107 200 174 l 200 660 l 75 660 l 75 276 b 358 -14 75 106 192 -14 z "},"ú":{"ha":717,"x_min":0,"x_max":0,"o":"m 275 758 l 497 940 l 400 1039 l 219 815 z m 358 -14 b 640 276 525 -14 640 104 l 640 660 l 515 660 l 515 282 b 358 107 515 172 457 107 b 200 282 260 107 200 174 l 200 660 l 75 660 l 75 276 b 358 -14 75 106 192 -14 z "},"û":{"ha":717,"x_min":0,"x_max":0,"o":"m 178 757 l 360 907 l 539 757 l 596 813 l 407 1028 l 310 1028 l 121 813 z m 358 -14 b 640 276 525 -14 640 104 l 640 660 l 515 660 l 515 282 b 358 107 515 172 457 107 b 200 282 260 107 200 174 l 200 660 l 75 660 l 75 276 b 358 -14 75 106 192 -14 z "},"ü":{"ha":717,"x_min":0,"x_max":0,"o":"m 219 771 b 299 851 265 771 299 806 b 219 931 299 896 265 931 b 142 851 174 931 142 896 b 219 771 142 806 174 771 z m 497 771 b 576 851 543 771 576 806 b 497 931 576 896 543 931 b 419 851 451 931 419 896 b 497 771 419 806 451 771 z m 358 -14 b 640 276 525 -14 640 104 l 640 660 l 515 660 l 515 282 b 358 107 515 172 457 107 b 200 282 260 107 200 174 l 200 660 l 75 660 l 75 276 b 358 -14 75 106 192 -14 z "},"ù":{"ha":717,"x_min":0,"x_max":0,"o":"m 414 749 l 471 804 l 290 1028 l 192 931 z m 358 -14 b 640 276 525 -14 640 104 l 640 660 l 515 660 l 515 282 b 358 107 515 172 457 107 b 200 282 260 107 200 174 l 200 660 l 75 660 l 75 276 b 358 -14 75 106 192 -14 z "},"v":{"ha":710,"x_min":0,"x_max":0,"o":"m 318 0 l 392 0 l 694 660 l 561 660 l 357 194 l 154 660 l 15 660 z "},"w":{"ha":1042,"x_min":0,"x_max":0,"o":"m 281 0 l 353 0 l 521 438 l 689 0 l 763 0 l 1022 660 l 892 660 l 724 203 l 557 660 l 485 660 l 318 203 l 150 660 l 19 660 z "},"x":{"ha":700,"x_min":0,"x_max":0,"o":"m 24 0 l 171 0 l 349 249 l 525 0 l 676 0 l 429 340 l 664 660 l 518 660 l 356 429 l 188 660 l 36 660 l 275 339 z "},"y":{"ha":714,"x_min":0,"x_max":0,"o":"m 119 -276 l 258 -276 l 383 -6 l 692 660 l 553 660 l 351 192 l 161 660 l 22 660 l 282 57 z "},"ý":{"ha":714,"x_min":0,"x_max":0,"o":"m 274 758 l 496 940 l 399 1039 l 217 815 z m 119 -276 l 258 -276 l 383 -6 l 692 660 l 553 660 l 351 192 l 161 660 l 22 660 l 282 57 z "},"ÿ":{"ha":714,"x_min":0,"x_max":0,"o":"m 218 771 b 297 851 264 771 297 806 b 218 931 297 896 264 931 b 139 851 172 931 139 896 b 218 771 139 806 172 771 z m 496 771 b 575 851 542 771 575 806 b 496 931 575 896 542 931 b 417 851 450 931 417 896 b 496 771 417 806 450 771 z m 119 -276 l 258 -276 l 383 -6 l 692 660 l 553 660 l 351 192 l 161 660 l 22 660 l 282 57 z "},"z":{"ha":621,"x_min":0,"x_max":0,"o":"m 39 0 l 569 0 l 569 114 l 219 114 l 578 592 l 578 660 l 63 660 l 63 546 l 396 546 l 39 68 z "},"ﬁ":{"ha":796,"x_min":0,"x_max":0,"o":"m 186 0 l 311 0 l 311 546 l 578 546 l 578 0 l 704 0 l 704 660 l 311 660 l 311 779 b 413 889 311 846 347 889 b 493 858 444 889 471 878 l 575 940 b 413 1006 531 982 479 1006 b 186 779 279 1006 186 908 l 186 660 l 24 660 l 24 546 l 186 546 z m 640 729 b 719 810 688 729 719 764 b 640 889 719 854 688 889 b 563 810 594 889 563 854 b 640 729 563 764 594 729 z "},"ﬂ":{"ha":796,"x_min":0,"x_max":0,"o":"m 186 0 l 311 0 l 311 546 l 579 546 l 579 0 l 704 0 l 704 997 l 579 997 l 579 660 l 311 660 l 311 749 b 450 889 311 826 358 889 l 450 1006 b 186 749 289 1006 186 888 l 186 660 l 24 660 l 24 546 l 186 546 z "},"ª":{"ha":492,"x_min":0,"x_max":0,"o":"m 221 556 b 343 608 272 556 315 576 l 343 564 l 442 564 l 442 964 l 343 964 l 343 919 b 221 972 315 951 271 972 b 25 764 110 972 25 883 b 221 556 25 646 110 556 z m 239 647 b 128 765 175 647 128 696 b 239 882 128 832 174 882 b 347 765 303 882 347 833 b 239 647 347 694 304 647 z "},"º":{"ha":478,"x_min":0,"x_max":0,"o":"m 239 554 b 453 764 360 554 453 646 b 239 972 453 882 360 972 b 25 764 117 972 25 881 b 239 554 25 646 118 554 z m 239 647 b 126 764 174 647 126 696 b 239 879 126 831 174 879 b 351 764 303 879 351 832 b 239 647 351 696 304 647 z "},"¹":{"ha":363,"x_min":0,"x_max":0,"o":"m 139 475 l 250 475 l 250 964 l 43 964 l 43 871 l 139 871 z "},"²":{"ha":467,"x_min":0,"x_max":0,"o":"m 50 475 l 410 475 l 410 568 l 224 568 l 319 663 b 399 817 378 718 399 760 b 228 972 399 913 333 972 b 47 876 153 972 89 942 l 122 810 b 219 876 153 856 182 876 b 288 813 261 876 288 850 b 242 731 288 788 278 767 l 50 538 z "},"³":{"ha":465,"x_min":0,"x_max":0,"o":"m 208 467 b 403 632 326 467 403 535 b 279 775 403 715 350 771 l 392 903 l 392 964 l 75 964 l 75 871 l 242 871 l 149 764 l 149 701 b 201 708 161 706 183 708 b 292 635 256 708 292 679 b 208 563 292 590 257 563 b 114 607 171 563 132 579 l 42 535 b 208 467 81 492 140 467 z "},"⁴":{"ha":486,"x_min":0,"x_max":0,"o":"m 282 475 l 393 475 l 393 576 l 442 576 l 442 671 l 393 671 l 393 771 l 282 771 l 282 671 l 181 671 l 324 964 l 203 964 l 46 638 l 46 576 l 282 576 z "},"⁄":{"ha":917,"x_min":0,"x_max":0,"o":"m 517 549 l 856 885 l 749 989 l 463 600 z m 386 419 l 47 83 l 154 -19 l 440 369 z "},"½":{"ha":931,"x_min":0,"x_max":0,"o":"m 517 549 l 856 885 l 749 989 l 463 600 z m 203 475 l 315 475 l 315 964 l 108 964 l 108 871 l 203 871 z m 496 -11 l 854 -11 l 854 82 l 668 82 l 765 176 b 844 331 822 232 844 274 b 674 486 844 426 778 486 b 493 390 599 486 535 456 l 568 324 b 664 390 599 369 626 390 b 733 326 706 390 733 364 b 688 244 733 301 724 281 l 496 51 z m 386 419 l 47 83 l 154 -19 l 440 369 z "},"¼":{"ha":939,"x_min":0,"x_max":0,"o":"m 517 549 l 856 885 l 749 989 l 463 600 z m 203 475 l 315 475 l 315 964 l 108 964 l 108 871 l 203 871 z m 485 90 l 721 90 l 721 -11 l 832 -11 l 832 90 l 881 90 l 881 185 l 832 185 l 832 285 l 721 285 l 721 185 l 619 185 l 763 478 l 642 478 l 485 151 z m 386 419 l 47 83 l 154 -19 l 440 369 z "},"¾":{"ha":931,"x_min":0,"x_max":0,"o":"m 561 544 l 879 885 l 774 989 l 507 589 z m 240 467 b 435 632 357 467 435 535 b 310 775 435 715 381 771 l 424 903 l 424 964 l 106 964 l 106 871 l 274 871 l 179 764 l 179 701 b 232 708 193 706 214 708 b 324 635 288 708 324 679 b 239 563 324 590 288 563 b 144 607 201 563 163 579 l 72 535 b 240 467 113 492 171 467 z m 451 90 l 686 90 l 686 -11 l 797 -11 l 797 90 l 846 90 l 846 185 l 797 185 l 797 285 l 686 285 l 686 185 l 585 185 l 729 478 l 608 478 l 451 151 z m 379 425 l 61 83 l 168 -19 l 433 379 z "},".":{"ha":403,"x_min":0,"x_max":0,"o":"m 201 -14 b 292 78 254 -14 292 26 b 201 168 292 129 254 168 b 111 78 149 168 111 129 b 201 -14 111 26 149 -14 z "},",":{"ha":382,"x_min":0,"x_max":0,"o":"m 99 -153 l 171 -192 l 263 -18 b 293 74 286 26 293 53 b 201 168 293 126 250 168 b 108 74 149 168 108 126 b 174 -10 108 31 139 -3 z "},":":{"ha":376,"x_min":0,"x_max":0,"o":"m 188 419 b 278 511 240 419 278 460 b 188 601 278 563 240 601 b 97 511 135 601 97 563 b 188 419 97 460 135 419 z m 188 -14 b 278 78 240 -14 278 26 b 188 168 278 129 240 168 b 97 78 135 168 97 129 b 188 -14 97 26 135 -14 z "},";":{"ha":374,"x_min":0,"x_max":0,"o":"m 188 419 b 278 511 240 419 278 460 b 188 601 278 563 240 601 b 99 511 135 601 99 563 b 188 419 99 460 135 419 z m 92 -153 l 163 -192 l 256 -18 b 286 74 279 26 286 53 b 193 168 286 126 243 168 b 101 74 143 168 101 126 b 167 -10 101 31 132 -3 z "},"…":{"ha":1042,"x_min":0,"x_max":0,"o":"m 521 -14 b 611 78 574 -14 611 26 b 521 168 611 129 574 168 b 431 78 468 168 431 129 b 521 -14 431 26 468 -14 z m 840 -14 b 931 78 893 -14 931 26 b 840 168 931 129 893 168 b 750 78 788 168 750 129 b 840 -14 750 26 788 -14 z m 201 -14 b 292 78 254 -14 292 26 b 201 168 292 129 254 168 b 111 78 149 168 111 129 b 201 -14 111 26 149 -14 z "},"!":{"ha":363,"x_min":0,"x_max":0,"o":"m 129 306 l 226 306 l 244 992 l 111 992 z m 176 -14 b 267 78 229 -14 267 26 b 176 168 267 129 229 168 b 88 78 124 168 88 129 b 176 -14 88 26 124 -14 z "},"¡":{"ha":371,"x_min":0,"x_max":0,"o":"m 185 492 b 274 582 238 492 274 531 b 185 674 274 635 238 674 b 94 582 132 674 94 635 b 185 492 94 531 132 492 z m 118 -276 l 251 -276 l 233 354 l 136 354 z "},"?":{"ha":701,"x_min":0,"x_max":0,"o":"m 304 306 l 413 306 l 421 471 b 633 738 550 508 633 607 b 346 1006 633 894 515 1006 b 56 832 214 1006 110 940 l 147 756 b 340 883 186 836 251 883 b 504 729 440 883 504 819 b 340 571 504 639 438 572 l 303 569 z m 357 -14 b 447 78 410 -14 447 26 b 357 168 447 129 410 168 b 267 78 304 168 267 129 b 357 -14 267 26 304 -14 z "},"¿":{"ha":679,"x_min":0,"x_max":0,"o":"m 347 492 b 436 583 400 492 436 531 b 347 674 436 635 400 674 b 257 583 294 674 257 635 b 347 492 257 531 294 492 z m 353 -290 b 643 -117 485 -290 589 -225 l 551 -40 b 358 -168 513 -121 447 -168 b 200 -12 264 -168 200 -103 b 364 146 200 82 267 144 l 400 146 l 400 354 l 292 354 l 283 246 b 71 -21 153 208 71 113 b 353 -290 71 -178 189 -290 z "},"·":{"ha":181,"x_min":0,"x_max":0,"o":"m 90 414 b 181 506 143 414 181 454 b 90 597 181 557 143 597 b 0 506 38 597 0 557 b 90 414 0 454 38 414 z "},"•":{"ha":458,"x_min":0,"x_max":0,"o":"m 229 371 b 364 507 307 371 364 431 b 229 643 364 581 307 643 b 93 507 150 643 93 581 b 229 371 93 431 150 371 z "},"*":{"ha":681,"x_min":0,"x_max":0,"o":"m 317 475 l 433 493 l 375 707 l 590 650 l 608 764 l 386 775 l 507 958 l 401 1011 l 324 807 l 186 975 l 104 893 l 274 758 l 68 681 l 121 576 l 306 696 z "},"#":{"ha":889,"x_min":0,"x_max":0,"o":"m 164 0 l 271 0 l 315 297 l 507 297 l 461 0 l 568 0 l 614 297 l 778 297 l 778 399 l 629 399 l 657 585 l 821 585 l 821 686 l 672 686 l 715 964 l 608 964 l 565 686 l 375 686 l 418 964 l 311 964 l 268 686 l 110 686 l 110 585 l 253 585 l 225 399 l 67 399 l 67 297 l 208 297 z m 332 399 l 360 585 l 550 585 l 522 399 z "},"/":{"ha":542,"x_min":0,"x_max":0,"o":"m 19 -56 l 138 -56 l 522 1018 l 406 1018 z "},"\\":{"ha":542,"x_min":0,"x_max":0,"o":"m 406 -56 l 522 -56 l 138 1018 l 19 1018 z "},"(":{"ha":421,"x_min":0,"x_max":0,"o":"m 307 -161 l 379 -96 b 174 432 247 19 174 208 b 379 960 174 657 247 844 l 307 1025 b 64 432 154 896 64 671 b 307 -161 64 194 154 -32 z "},")":{"ha":419,"x_min":0,"x_max":0,"o":"m 114 -161 b 357 432 267 -32 357 194 b 114 1025 357 671 267 896 l 42 960 b 246 432 174 844 246 657 b 42 -96 246 208 174 19 z "},"{":{"ha":449,"x_min":0,"x_max":0,"o":"m 329 -133 l 399 -133 l 399 -33 l 340 -33 b 233 103 257 -33 225 4 l 247 260 b 181 431 256 343 240 399 b 247 603 240 464 256 518 l 233 756 b 340 893 224 854 257 893 l 399 893 l 399 992 l 329 992 b 128 750 186 992 111 911 l 144 582 b 81 479 151 513 132 479 l 42 479 l 42 383 l 81 383 b 144 281 132 383 151 351 l 128 108 b 329 -133 113 -51 186 -133 z "},"}":{"ha":449,"x_min":0,"x_max":0,"o":"m 119 -133 b 321 108 263 -133 336 -51 l 304 281 b 368 383 297 351 317 383 l 407 383 l 407 479 l 368 479 b 304 582 317 479 297 513 l 321 750 b 119 992 338 911 263 992 l 50 992 l 50 893 l 108 893 b 215 756 192 893 225 854 l 201 603 b 268 431 193 518 208 464 b 201 260 208 399 193 343 l 215 103 b 108 -33 224 4 192 -33 l 50 -33 l 50 -133 z "},"[":{"ha":469,"x_min":0,"x_max":0,"o":"m 110 -133 l 419 -133 l 419 -33 l 215 -33 l 215 893 l 419 893 l 419 992 l 110 992 z "},"]":{"ha":469,"x_min":0,"x_max":0,"o":"m 50 -133 l 360 -133 l 360 992 l 50 992 l 50 893 l 254 893 l 254 -33 l 50 -33 z "},"-":{"ha":640,"x_min":0,"x_max":0,"o":"m 92 294 l 549 294 l 549 413 l 92 413 z "},"­":{"ha":640,"x_min":0,"x_max":0,"o":"m 92 294 l 549 294 l 549 413 l 92 413 z "},"–":{"ha":763,"x_min":0,"x_max":0,"o":"m 92 300 l 671 300 l 671 407 l 92 407 z "},"—":{"ha":1183,"x_min":0,"x_max":0,"o":"m 92 301 l 1083 301 l 1083 404 l 92 404 z "},"_":{"ha":701,"x_min":0,"x_max":0,"o":"m 28 -172 l 674 -172 l 674 -64 l 28 -64 z "},"‚":{"ha":382,"x_min":0,"x_max":0,"o":"m 99 -153 l 171 -192 l 263 -18 b 293 74 286 26 293 53 b 201 168 293 126 250 168 b 108 74 149 168 108 126 b 174 -10 108 31 139 -3 z "},"„":{"ha":638,"x_min":0,"x_max":0,"o":"m 354 -153 l 426 -192 l 518 -18 b 549 74 542 26 549 53 b 457 168 549 126 506 168 b 364 74 406 168 364 126 b 429 -10 364 31 394 -3 z m 99 -153 l 171 -192 l 263 -18 b 293 74 286 26 293 53 b 201 168 293 126 250 168 b 108 74 150 168 108 126 b 174 -10 108 31 139 -3 z "},"“":{"ha":600,"x_min":0,"x_max":0,"o":"m 265 965 l 194 1004 l 101 832 b 71 739 78 788 71 760 b 164 644 71 686 114 644 b 256 739 214 644 256 688 b 190 822 256 783 225 817 z m 521 965 l 450 1004 l 357 832 b 326 739 333 788 326 760 b 419 644 326 686 369 644 b 511 739 469 644 511 688 b 446 822 511 783 481 817 z "},"”":{"ha":601,"x_min":0,"x_max":0,"o":"m 336 657 l 408 618 l 500 790 b 531 883 524 836 531 863 b 439 978 531 936 488 978 b 346 883 388 978 346 935 b 411 800 346 839 376 806 z m 81 657 l 153 618 l 244 790 b 275 883 268 836 275 863 b 183 978 275 936 232 978 b 90 883 132 978 90 935 b 156 800 90 839 121 806 z "},"‘":{"ha":344,"x_min":0,"x_max":0,"o":"m 265 965 l 194 1004 l 101 832 b 71 739 78 788 71 760 b 164 644 71 686 114 644 b 256 739 214 644 256 688 b 190 822 256 783 225 817 z "},"’":{"ha":346,"x_min":0,"x_max":0,"o":"m 81 657 l 153 618 l 244 790 b 275 883 268 836 275 863 b 183 978 275 936 232 978 b 90 883 132 978 90 935 b 156 800 90 839 121 806 z "},"ʼ":{"ha":356,"x_min":0,"x_max":0,"o":"m 65 685 l 136 646 l 250 818 b 288 914 278 861 288 890 b 196 1006 288 965 249 1006 b 103 911 142 1006 103 963 b 160 829 103 869 129 839 z "},"«":{"ha":636,"x_min":0,"x_max":0,"o":"m 203 114 l 331 114 l 174 333 l 331 554 l 203 554 l 51 333 z m 460 114 l 586 114 l 429 333 l 586 554 l 460 554 l 308 333 z "},"»":{"ha":636,"x_min":0,"x_max":0,"o":"m 307 114 l 433 114 l 585 333 l 433 554 l 307 554 l 464 333 z m 50 114 l 178 114 l 329 333 l 178 554 l 50 554 l 208 333 z "},"‹":{"ha":381,"x_min":0,"x_max":0,"o":"m 203 114 l 331 114 l 174 333 l 331 554 l 203 554 l 51 333 z "},"›":{"ha":381,"x_min":0,"x_max":0,"o":"m 50 114 l 178 114 l 329 333 l 178 554 l 50 554 l 208 333 z "},"\"":{"ha":556,"x_min":0,"x_max":0,"o":"m 351 653 l 431 653 l 461 992 l 322 992 z m 125 653 l 204 653 l 233 992 l 96 992 z "},"'":{"ha":329,"x_min":0,"x_max":0,"o":"m 125 653 l 204 653 l 233 992 l 96 992 z "}," ":{"ha":289,"x_min":0,"x_max":0,"o":""}," ":{"ha":289,"x_min":0,"x_max":0,"o":""},"\r":{"ha":833,"x_min":0,"x_max":0,"o":""},"¢":{"ha":724,"x_min":0,"x_max":0,"o":"m 356 14 l 447 14 l 447 140 b 667 250 535 147 613 186 l 585 333 b 447 261 550 293 503 268 l 447 703 b 585 632 503 696 550 671 l 667 715 b 447 824 613 778 535 817 l 447 950 l 356 950 l 356 821 b 68 482 189 794 68 657 b 356 143 68 308 189 169 z m 197 483 b 356 699 197 592 260 674 l 356 265 b 197 483 260 290 197 374 z "},"¤":{"ha":783,"x_min":0,"x_max":0,"o":"m 140 165 l 228 253 b 392 204 274 222 329 204 b 556 253 453 204 510 222 l 644 165 l 708 229 l 621 317 b 675 483 656 363 675 419 b 621 647 675 544 656 601 l 708 733 l 644 800 l 554 711 b 392 760 508 742 453 760 b 228 711 329 760 274 742 l 140 800 l 74 733 l 161 646 b 108 482 128 601 108 544 b 161 318 108 421 128 364 l 74 229 z m 392 319 b 236 483 300 319 236 388 b 392 644 236 575 300 644 b 547 483 482 644 547 576 b 392 319 547 388 482 319 z "},"$":{"ha":817,"x_min":0,"x_max":0,"o":"m 383 -139 l 475 -139 l 475 -8 b 726 258 632 14 726 110 b 475 547 726 444 599 503 l 475 857 b 622 757 529 843 578 808 l 710 844 b 475 975 654 914 571 963 l 475 1103 l 383 1103 l 383 975 b 129 718 236 958 131 865 b 383 440 131 536 260 485 l 383 103 b 167 236 290 110 221 158 l 79 149 b 383 -14 157 47 253 -8 z m 256 726 b 383 860 256 801 301 847 l 383 582 b 256 726 311 611 256 649 z m 596 249 b 475 110 596 175 550 126 l 475 404 b 596 249 544 374 596 332 z "},"€":{"ha":1007,"x_min":0,"x_max":0,"o":"m 35 310 l 154 310 b 594 -14 215 119 378 -14 b 936 133 739 -14 849 42 l 846 222 b 596 108 783 151 706 108 b 290 310 449 108 340 186 l 606 310 l 639 414 l 264 414 b 258 482 261 435 258 458 b 264 553 260 507 261 531 l 663 553 l 696 656 l 292 656 b 589 856 342 778 447 856 b 839 743 699 856 776 815 l 929 833 b 594 978 840 922 738 978 b 154 656 378 978 215 844 l 35 656 l 35 553 l 132 553 b 128 482 129 529 128 506 b 132 414 128 458 129 436 l 35 414 z "},"£":{"ha":860,"x_min":0,"x_max":0,"o":"m 92 0 l 760 0 l 760 119 l 354 119 l 354 413 l 625 413 l 625 517 l 354 517 l 354 683 b 519 858 354 793 424 858 b 693 760 606 858 651 819 l 779 846 b 521 978 732 918 653 978 b 224 671 351 978 224 863 l 224 517 l 92 517 l 92 413 l 224 413 l 224 119 l 92 119 z "},"¥":{"ha":896,"x_min":0,"x_max":0,"o":"m 108 310 l 383 310 l 383 0 l 514 0 l 514 310 l 788 310 l 788 414 l 514 414 l 514 426 l 585 553 l 788 553 l 788 656 l 643 656 l 817 964 l 668 964 l 449 536 l 231 964 l 79 964 l 251 656 l 108 656 l 108 553 l 308 553 l 383 419 l 383 414 l 108 414 z "},"∕":{"ha":542,"x_min":0,"x_max":0,"o":"m 19 -56 l 138 -56 l 522 1018 l 406 1018 z "},"+":{"ha":753,"x_min":0,"x_max":0,"o":"m 82 408 l 319 408 l 319 156 l 435 156 l 435 408 l 671 408 l 671 521 l 435 521 l 435 774 l 319 774 l 319 521 l 82 521 z "},"−":{"ha":753,"x_min":0,"x_max":0,"o":"m 82 408 l 671 408 l 671 521 l 82 521 z "},"×":{"ha":731,"x_min":0,"x_max":0,"o":"m 160 176 l 365 382 l 561 186 l 643 268 l 447 464 l 654 671 l 572 753 l 365 546 l 168 743 l 86 661 l 283 464 l 78 258 z "},"÷":{"ha":753,"x_min":0,"x_max":0,"o":"m 376 601 b 467 693 429 601 467 642 b 376 785 467 744 429 785 b 288 693 324 785 288 744 b 376 601 288 642 324 601 z m 82 408 l 671 408 l 671 521 l 82 521 z m 376 146 b 467 238 429 146 467 186 b 376 328 467 289 429 328 b 288 238 324 328 288 289 b 376 146 288 186 324 146 z "},"=":{"ha":753,"x_min":0,"x_max":0,"o":"m 82 568 l 671 568 l 671 681 l 82 681 z m 82 249 l 671 249 l 671 361 l 82 361 z "},">":{"ha":764,"x_min":0,"x_max":0,"o":"m 97 649 l 529 465 l 97 282 l 97 157 l 688 421 l 688 511 l 97 775 z "},"<":{"ha":764,"x_min":0,"x_max":0,"o":"m 667 157 l 667 282 l 235 465 l 667 649 l 667 775 l 76 511 l 76 421 z "},"±":{"ha":753,"x_min":0,"x_max":0,"o":"m 82 499 l 319 499 l 319 326 l 435 326 l 435 499 l 671 499 l 671 611 l 435 611 l 435 785 l 319 785 l 319 611 l 82 611 z m 82 146 l 671 146 l 671 258 l 82 258 z "},"~":{"ha":729,"x_min":0,"x_max":0,"o":"m 485 386 b 667 489 561 386 621 422 l 596 560 b 482 504 564 524 528 504 b 247 568 400 504 354 568 b 63 465 169 568 108 532 l 135 394 b 251 450 165 431 203 450 b 485 386 338 450 383 386 z "},"¬":{"ha":753,"x_min":0,"x_max":0,"o":"m 82 478 l 556 478 l 556 246 l 671 246 l 671 590 l 82 590 z "},"^":{"ha":629,"x_min":0,"x_max":0,"o":"m 450 635 l 556 635 l 356 992 l 272 992 l 74 635 l 179 635 l 315 878 z "},"µ":{"ha":804,"x_min":0,"x_max":0,"o":"m 136 -260 l 261 -260 l 261 58 b 439 -14 301 13 361 -14 b 701 261 593 -14 701 101 l 701 660 l 576 660 l 576 276 b 418 107 576 161 506 107 b 261 275 329 107 261 163 l 261 660 l 136 660 z "},"%":{"ha":917,"x_min":0,"x_max":0,"o":"m 264 588 b 461 783 375 588 461 674 b 264 978 461 892 374 978 b 69 783 156 978 69 892 b 264 588 69 674 157 588 z m 86 0 l 213 0 l 831 964 l 704 964 z m 264 686 b 172 783 211 686 172 725 b 264 879 172 840 211 879 b 358 783 318 879 358 840 b 264 686 358 725 319 686 z m 651 -14 b 849 182 763 -14 849 72 b 651 376 849 290 761 376 b 456 182 542 376 456 290 b 651 -14 456 72 543 -14 z m 651 85 b 558 182 597 85 558 125 b 651 278 558 238 597 278 b 746 182 704 278 746 238 b 651 85 746 125 707 85 z "},"✓":{"ha":1081,"x_min":0,"x_max":0,"o":"m 361 108 l 432 108 l 1050 774 l 968 854 l 397 228 l 111 515 l 31 435 z "},"@":{"ha":1042,"x_min":0,"x_max":0,"o":"m 500 125 b 622 169 553 125 594 140 l 622 135 l 919 135 b 969 332 954 190 969 251 b 533 783 969 596 789 783 b 74 328 276 783 74 586 b 525 -125 74 69 272 -125 b 826 -18 642 -125 744 -89 l 757 53 b 522 -28 697 0 621 -28 b 182 326 319 -28 182 110 b 535 685 182 544 324 685 b 867 339 742 685 867 557 b 851 217 867 290 863 251 l 713 217 l 713 524 l 622 524 l 622 488 b 500 532 594 517 551 532 b 304 328 393 532 304 443 b 500 125 304 214 393 125 z m 506 213 b 397 329 443 213 397 260 b 506 446 397 397 443 446 b 615 329 572 446 615 400 b 506 213 615 260 572 213 z "},"&":{"ha":915,"x_min":0,"x_max":0,"o":"m 400 -14 b 663 89 504 -14 601 28 l 746 0 l 899 0 l 386 558 b 303 724 331 618 303 658 b 449 858 303 801 364 858 b 611 760 519 858 568 819 l 701 842 b 449 979 651 918 564 979 b 178 722 290 979 178 868 b 246 539 178 654 200 599 b 81 278 138 482 81 388 b 400 -14 81 107 207 -14 z m 206 281 b 313 464 206 364 246 425 l 581 176 b 404 104 540 135 482 106 b 206 281 286 106 206 172 z "},"¶":{"ha":981,"x_min":0,"x_max":0,"o":"m 571 -139 l 571 850 l 682 850 l 682 -139 l 792 -139 l 792 850 l 913 850 l 913 964 l 390 964 b 78 669 213 964 78 849 b 390 375 78 492 213 375 l 461 375 l 461 -139 z m 397 489 b 210 669 289 489 210 560 b 397 850 210 781 289 850 l 461 850 l 461 489 z "},"§":{"ha":718,"x_min":0,"x_max":0,"o":"m 346 -168 b 600 56 504 -168 600 -79 b 517 224 600 140 565 190 b 632 400 588 258 632 318 b 239 763 632 678 239 590 b 368 861 239 821 286 861 b 550 769 443 861 507 831 l 632 851 b 374 978 576 932 485 978 b 118 756 214 978 118 889 b 201 586 118 669 153 619 b 86 410 132 551 86 492 b 479 47 88 132 479 219 b 350 -51 479 -11 433 -51 b 169 42 275 -51 213 -19 l 88 -40 b 346 -168 143 -122 233 -168 z m 208 421 b 349 524 208 485 261 524 b 511 389 433 496 511 471 b 371 286 511 325 457 286 b 208 421 285 314 208 339 z "},"©":{"ha":1157,"x_min":0,"x_max":0,"o":"m 581 -14 b 1069 482 868 -14 1069 203 b 578 976 1069 763 867 976 b 88 483 289 976 88 763 b 581 -14 88 204 292 -14 z m 578 43 b 147 483 324 43 147 235 b 578 921 147 731 322 921 b 1010 483 832 921 1010 729 b 578 43 1010 235 832 43 z m 590 206 b 796 294 671 206 746 238 l 722 369 b 592 314 692 335 649 314 b 428 483 499 314 428 383 b 592 651 428 582 499 651 b 722 596 644 651 689 632 l 796 671 b 592 758 744 728 671 758 b 311 483 433 758 311 638 b 590 206 311 326 433 206 z "},"®":{"ha":789,"x_min":0,"x_max":0,"o":"m 394 374 b 694 676 571 374 694 506 b 393 978 694 846 569 978 b 96 678 218 978 96 846 b 394 374 96 507 219 374 z m 393 414 b 138 678 243 414 138 528 b 393 938 138 824 242 938 b 651 678 546 938 651 824 b 393 414 651 528 546 414 z m 293 522 l 342 522 l 342 660 l 363 660 l 475 522 l 535 522 l 419 661 b 510 750 475 664 510 699 b 411 840 510 801 471 840 l 293 840 z m 410 797 b 463 749 443 797 463 776 b 408 701 463 719 443 701 l 342 701 l 342 797 z "},"°":{"ha":547,"x_min":0,"x_max":0,"o":"m 274 549 b 490 763 400 549 490 640 b 274 978 490 885 400 978 b 57 763 147 978 57 885 b 274 549 57 640 147 549 z m 274 647 b 164 763 210 647 164 699 b 274 878 164 829 210 878 b 383 763 339 878 383 829 b 274 647 383 699 338 647 z "},"|":{"ha":386,"x_min":0,"x_max":0,"o":"m 136 -181 l 250 -181 l 250 1061 l 136 1061 z "},"¦":{"ha":386,"x_min":0,"x_max":0,"o":"m 136 546 l 250 546 l 250 1061 l 136 1061 z m 136 -181 l 250 -181 l 250 335 l 136 335 z "},"̈":{"ha":0,"x_min":0,"x_max":0,"o":"m 163 771 b 242 851 208 771 242 806 b 163 931 242 896 208 931 b 83 851 117 931 83 896 b 163 771 83 806 117 771 z m 440 771 b 519 851 486 771 519 806 b 440 931 519 896 486 931 b 361 851 394 931 361 896 b 440 771 361 806 394 771 z "},"̀":{"ha":0,"x_min":0,"x_max":0,"o":"m 278 749 l 335 804 l 154 1028 l 56 931 z "},"́":{"ha":0,"x_min":0,"x_max":0,"o":"m 113 758 l 335 940 l 236 1039 l 56 815 z "},"̂":{"ha":0,"x_min":0,"x_max":0,"o":"m 113 757 l 294 907 l 475 757 l 531 813 l 342 1028 l 244 1028 l 56 813 z "},"̊":{"ha":0,"x_min":0,"x_max":0,"o":"m 224 739 b 388 904 318 739 388 811 b 224 1068 388 996 318 1068 b 56 904 125 1068 56 996 b 224 739 56 811 125 739 z m 224 829 b 150 904 179 829 150 861 b 224 978 150 946 179 978 b 294 904 263 978 294 946 b 224 829 294 861 263 829 z "},"̃":{"ha":0,"x_min":0,"x_max":0,"o":"m 417 761 b 578 854 485 761 531 799 l 510 921 b 415 869 485 888 461 869 b 218 933 350 869 310 933 b 56 842 149 933 103 897 l 124 775 b 219 825 149 808 172 825 b 417 761 288 825 328 761 z "},"̄":{"ha":0,"x_min":0,"x_max":0,"o":"m 56 926 l 56 822 l 556 822 l 556 926 z "},"̧":{"ha":0,"x_min":0,"x_max":0,"o":"m 179 -290 b 358 -167 288 -290 358 -239 b 229 -49 358 -107 308 -61 l 250 18 l 156 18 l 113 -117 l 174 -117 b 251 -164 226 -117 251 -137 b 171 -208 251 -190 225 -208 b 74 -172 128 -208 94 -193 l 17 -240 b 179 -290 64 -272 114 -290 z "},"¨":{"ha":603,"x_min":0,"x_max":0,"o":"m 163 771 b 242 851 208 771 242 806 b 163 931 242 896 208 931 b 83 851 117 931 83 896 b 163 771 83 806 117 771 z m 440 771 b 519 851 486 771 519 806 b 440 931 519 896 486 931 b 361 851 394 931 361 896 b 440 771 361 806 394 771 z "},"`":{"ha":390,"x_min":0,"x_max":0,"o":"m 278 728 l 335 783 l 154 1007 l 56 910 z "},"´":{"ha":390,"x_min":0,"x_max":0,"o":"m 113 758 l 335 940 l 236 1039 l 56 815 z "},"ˆ":{"ha":586,"x_min":0,"x_max":0,"o":"m 113 757 l 294 907 l 475 757 l 531 813 l 342 1028 l 244 1028 l 56 813 z "},"˚":{"ha":443,"x_min":0,"x_max":0,"o":"m 224 739 b 388 904 318 739 388 811 b 224 1068 388 996 318 1068 b 56 904 125 1068 56 996 b 224 739 56 811 125 739 z m 224 829 b 150 904 179 829 150 861 b 224 978 150 946 179 978 b 294 904 263 978 294 946 b 224 829 294 861 263 829 z "},"˜":{"ha":633,"x_min":0,"x_max":0,"o":"m 417 761 b 578 854 485 761 531 799 l 510 921 b 415 869 485 888 461 869 b 218 933 350 869 310 933 b 56 842 149 933 103 897 l 124 775 b 219 825 149 808 172 825 b 417 761 288 825 328 761 z "},"¯":{"ha":611,"x_min":0,"x_max":0,"o":"m 56 926 l 56 822 l 556 822 l 556 926 z "},"¸":{"ha":376,"x_min":0,"x_max":0,"o":"m 179 -290 b 358 -167 288 -290 358 -239 b 229 -49 358 -107 308 -61 l 250 18 l 156 18 l 113 -117 l 174 -117 b 251 -164 226 -117 251 -137 b 171 -208 251 -190 225 -208 b 74 -172 128 -208 94 -193 l 17 -240 b 179 -290 64 -272 114 -290 z "}}}
